<?xml version="1.0" encoding="UTF-8"?>
<svg width="17px" height="20px" viewBox="0 0 17 20" version="1.1" xmlns="http://www.w3.org/2000/svg" xmlns:xlink="http://www.w3.org/1999/xlink">
    <!-- Generator: Sketch 58 (84663) - https://sketch.com -->
    <title>ic-ios</title>
    <desc>Created with Sketch.</desc>
    <g id="Page-1" stroke="none" stroke-width="1" fill="none" fill-rule="evenodd">
        <g id="Mobile" transform="translate(-216.000000, -1952.000000)" fill="#30475E" fill-rule="nonzero">
            <g id="Footer" transform="translate(0.000000, 1884.000000)">
                <g id="Stores" transform="translate(201.000000, 32.000000)">
                    <g id="App-Store" transform="translate(15.000000, 36.000000)">
                        <g id="ic-ios" transform="translate(0.000000, 0.000000)">
                            <path d="M13.919666,10.7352895 C13.896291,8.27811242 16.038791,7.08259267 16.1365827,7.02691308 C14.9232493,5.34755547 13.0427077,5.11797533 12.3822493,5.09941547 C10.803041,4.94159462 9.27120766,5.99665465 8.46620766,5.99665465 C7.64587433,5.99665465 6.40670766,5.11487513 5.07162433,5.14025543 C3.35345766,5.1655944 1.7459535,6.10987395 0.864107662,7.57701255 C-0.955550671,10.5675894 0.401657662,14.9628461 2.14506183,17.3804233 C3.01708266,18.5654024 4.036041,19.8865009 5.369916,19.8400806 C6.67483266,19.7899814 7.16187433,19.0505217 8.736791,19.0505217 C10.2969577,19.0505217 10.7544577,19.8400806 12.1147493,19.8097813 C13.5149993,19.7899814 14.3968743,18.621082 15.2381243,17.4256036 C16.246041,16.0698242 16.650666,14.7320259 16.666666,14.6633255 C16.6347077,14.6534462 13.9479577,13.6801074 13.9208743,10.7346695 L13.919666,10.7352895 Z M11.317166,3.11743701 C12.0188327,2.2839338 12.4990827,1.15031884 12.365666,0 C11.3497493,0.042695953 10.0798743,0.66705141 9.348041,1.48199062 C8.70112433,2.20039788 8.12308266,3.3773247 8.27187433,4.48433581 C9.41262433,4.5653957 10.5841243,3.93794418 11.316541,3.11743701 L11.317166,3.11743701 Z" id="Shape"></path>
                        </g>
                    </g>
                </g>
            </g>
        </g>
    </g>
</svg>