<?xml version="1.0" encoding="UTF-8"?>
<svg width="11px" height="20px" viewBox="0 0 11 20" version="1.1" xmlns="http://www.w3.org/2000/svg" xmlns:xlink="http://www.w3.org/1999/xlink">
    <!-- Generator: Sketch 58 (84663) - https://sketch.com -->
    <title>Facebook</title>
    <desc>Created with Sketch.</desc>
    <g id="Page-1" stroke="none" stroke-width="1" fill="none" fill-rule="evenodd">
        <g id="Mobile" transform="translate(-16.000000, -1952.000000)" fill="#FFFFFF" fill-rule="nonzero">
            <g id="Footer" transform="translate(0.000000, 1884.000000)">
                <g id="Social" transform="translate(16.000000, 68.000000)">
                    <g id="Facebook">
                        <path d="M8.70408156,0 L7.71124589,0 C6.83003267,0 6.103884,0.0889990333 5.31498544,0.373340967 C4.17040378,0.7972948 2.26256656,1.96366546 2.26256656,5.25094267 L2.26256656,6.10766489 C2.26256656,6.34622778 2.05712111,6.53986467 1.80370811,6.53986467 L1.73039944,6.53986467 C0.863968556,6.53986467 0.0898524444,7.13698278 0.00779488889,7.95020067 C-0.0866315556,8.88284222 0.689294667,9.667626 1.65920244,9.667626 L1.79978622,9.667626 C2.055311,9.667626 2.26256656,9.86296889 2.26256656,10.1038066 L2.26256656,18.3687738 C2.26256656,19.1854039 2.89579711,19.9150252 3.75830611,19.9926507 C4.74812489,20.0816497 5.581069,19.3506066 5.581069,18.4361629 L5.581069,10.2266423 C5.581069,9.91784689 5.84654922,9.667626 6.17387422,9.667626 L6.41461644,9.667626 C7.281349,9.667626 8.05516344,9.070508 8.13752267,8.25729 C8.23194911,7.32464844 7.45602289,6.53986467 6.48611511,6.53986467 L6.17146078,6.53986467 C5.84534244,6.53986467 5.581069,6.29078111 5.581069,5.98340744 L5.581069,5.25094267 C5.581069,3.60431844 6.24114933,3.39077767 6.51447322,3.28955189 C6.90877167,3.14766533 7.23519167,3.12776133 7.71124589,3.12776133 L8.77558022,3.12776133 C9.74548789,3.12776133 10.5214141,2.34297756 10.4269877,1.41033603 C10.3446284,0.597118078 9.570814,0 8.70408156,0" id="ic_fbk"></path>
                    </g>
                </g>
            </g>
        </g>
    </g>
</svg>