<?xml version="1.0" encoding="UTF-8"?>
<svg width="18px" height="20px" viewBox="0 0 18 20" version="1.1" xmlns="http://www.w3.org/2000/svg" xmlns:xlink="http://www.w3.org/1999/xlink">
    <!-- Generator: Sketch 58 (84663) - https://sketch.com -->
    <title>ic-android</title>
    <desc>Created with Sketch.</desc>
    <g id="Page-1" stroke="none" stroke-width="1" fill="none" fill-rule="evenodd">
        <g id="Mobile" transform="translate(-201.000000, -1916.000000)" fill="#FFFFFF" fill-rule="nonzero">
            <g id="Footer" transform="translate(0.000000, 1884.000000)">
                <g id="Stores" transform="translate(201.000000, 32.000000)">
                    <g id="Google-Play">
                        <g id="ic-android" transform="translate(-0.000000, 0.000000)">
                            <path d="M3.47826087,14.994625 C3.47826087,15.4951667 3.82608696,15.8286667 4.34782609,15.8286667 L5.2173913,15.8286667 L5.2173913,18.7486667 C5.2173913,19.41625 5.82608696,20 6.52173913,20 C7.2173913,20 7.82608696,19.41625 7.82608696,18.7486667 L7.82608696,15.8286667 L9.56521739,15.8286667 L9.56521739,18.7486667 C9.56521739,19.41625 10.173913,20 10.8695652,20 C11.5652174,20 12.173913,19.41625 12.173913,18.7486667 L12.173913,15.8286667 L13.0434783,15.8286667 C13.5652174,15.8286667 13.9130435,15.4951667 13.9130435,14.994625 L13.9130435,6.65258335 L3.47826087,6.65258335 L3.47826087,14.994625 Z M1.30434783,6.65195835 C0.608695652,6.65195835 0,7.23570835 0,7.90329168 L0,13.7426667 C0,14.41025 0.608695652,14.994 1.30434783,14.994 C2,14.994 2.60869565,14.41025 2.60869565,13.7426667 L2.60869565,7.90329168 C2.60869565,7.23570835 2,6.65195835 1.30434783,6.65195835 L1.30434783,6.65195835 Z M16.0869565,6.65195835 C15.3913043,6.65195835 14.7826087,7.23570835 14.7826087,7.90329168 L14.7826087,13.7426667 C14.7826087,14.41025 15.3913043,14.994 16.0869565,14.994 C16.7826087,14.994 17.3913043,14.41025 17.3913043,13.7426667 L17.3913043,7.90329168 C17.3913043,7.23570835 16.7826087,6.65195835 16.0869565,6.65195835 L16.0869565,6.65195835 Z M11.7391304,1.81365835 L12.8695652,0.72937502 C13.0434783,0.562320854 13.0434783,0.312052937 12.8695652,0.145624604 C12.6956522,-0.0208034791 12.4347826,-0.0214291458 12.2608696,0.145624604 L10.9565217,1.39696252 C10.3478261,0.979641686 9.56521739,0.81321252 8.69565217,0.81321252 C7.82608696,0.81321252 7.04347826,0.980266686 6.34782609,1.31375002 L5.13043478,0.0624104374 C4.95652174,-0.0208034791 4.60869565,-0.0208034791 4.43478261,0.0624104374 C4.34782609,0.229464187 4.34782609,0.562945854 4.43478261,0.73000002 L5.56521739,1.81428752 C4.34782609,2.73214168 3.47826087,4.14991252 3.47826087,5.81858335 L13.9130435,5.81858335 C13.9130435,4.14991252 13.0434783,2.64830418 11.7391304,1.81428752 L11.7391304,1.81365835 Z M6.95652174,4.14928335 L6.08695652,4.14928335 L6.08695652,3.31526668 L6.95652174,3.31526668 L6.95652174,4.14928335 Z M11.3043478,4.14928335 L10.4347826,4.14928335 L10.4347826,3.31526668 L11.3043478,3.31526668 L11.3043478,4.14928335 Z" id="Shape"></path>
                        </g>
                    </g>
                </g>
            </g>
        </g>
    </g>
</svg>