<?xml version="1.0" encoding="UTF-8"?>
<svg width="20px" height="20px" viewBox="0 0 20 20" version="1.1" xmlns="http://www.w3.org/2000/svg" xmlns:xlink="http://www.w3.org/1999/xlink">
    <!-- Generator: Sketch 58 (84663) - https://sketch.com -->
    <title>Instagram</title>
    <desc>Created with Sketch.</desc>
    <g id="Page-1" stroke="none" stroke-width="1" fill="none" fill-rule="evenodd">
        <g id="Mobile" transform="translate(-43.000000, -1952.000000)" fill="#FFFFFF" fill-rule="nonzero">
            <g id="Footer" transform="translate(0.000000, 1884.000000)">
                <g id="Social" transform="translate(16.000000, 68.000000)">
                    <g id="Instagram" transform="translate(27.000000, 0.000000)">
                        <path d="M0,6.109333 C0,2.73524156 2.72514778,0 6.10920244,0 L10.4761904,0 L13.887604,0 C17.2633871,0 20,2.73897911 20,6.109333 L20,13.890667 C20,17.2647584 17.2610209,20 13.890667,20 L6.109333,20 C2.73524156,20 0,17.2610209 0,13.890667 L0,6.109333 Z M15.2380952,4.047619 C15.2380952,4.70503478 15.7711557,5.23809522 16.4285714,5.23809522 C17.0859871,5.23809522 17.6190477,4.70503478 17.6190477,4.047619 C17.6190477,3.39020333 17.0859871,2.85714289 16.4285714,2.85714289 C15.7711557,2.85714289 15.2380952,3.39020333 15.2380952,4.047619 Z M4.28571433,10.4761904 C4.28571433,13.6321033 6.84408711,16.1904762 10,16.1904762 C13.1559129,16.1904762 15.7142857,13.6321033 15.7142857,10.4761904 C15.7142857,7.32027767 13.1559129,4.76190478 10,4.76190478 C6.84408711,4.76190478 4.28571433,7.32027767 4.28571433,10.4761904 Z M13.8095238,10.4761904 C13.8095238,12.5801323 12.1039419,14.2857143 10,14.2857143 C7.89605811,14.2857143 6.19047622,12.5801323 6.19047622,10.4761904 C6.19047622,8.37224856 7.89605811,6.66666667 10,6.66666667 C12.1039419,6.66666667 13.8095238,8.37224856 13.8095238,10.4761904 Z" id="ic_ig"></path>
                    </g>
                </g>
            </g>
        </g>
    </g>
</svg>